{
  "accessors": [
    {
      "bufferView": 2,
      "componentType": 5126,
      "count": 37770,
      "max": [
        0.027878742665052414,
        0.010945810936391354,
        0.09008483588695526
      ],
      "min": [
        -0.028019502758979797,
        -0.007376486901193857,
        -0.014962445013225079
      ],
      "type": "VEC3"
    },
    {
      "bufferView": 2,
      "byteOffset": 453240,
      "componentType": 5126,
      "count": 37770,
      "type": "VEC3"
    },
    {
      "bufferView": 1,
      "componentType": 5126,
      "count": 37770,
      "type": "VEC2"
    },
    {
      "bufferView": 4,
      "componentType": 5123,
      "count": 37770,
      "type": "VEC4"
    },
    {
      "bufferView": 3,
      "componentType": 5126,
      "count": 37770,
      "type": "VEC4"
    },
    {
      "bufferView": 0,
      "componentType": 5125,
      "count": 177696,
      "type": "SCALAR"
    },
    {
      "bufferView": 5,
      "componentType": 5126,
      "count": 2,
      "type": "MAT4"
    },
    {
      "bufferView": 8,
      "componentType": 5126,
      "count": 191,
      "max": [
        8.0
      ],
      "min": [
        0.03333333507180214
      ],
      "type": "SCALAR"
    },
    {
      "bufferView": 6,
      "componentType": 5126,
      "count": 191,
      "type": "VEC3"
    },
    {
      "bufferView": 8,
      "byteOffset": 764,
      "componentType": 5126,
      "count": 239,
      "max": [
        8.0
      ],
      "min": [
        0.03333333507180214
      ],
      "type": "SCALAR"
    },
    {
      "bufferView": 7,
      "componentType": 5126,
      "count": 239,
      "type": "VEC4"
    },
    {
      "bufferView": 8,
      "byteOffset": 1720,
      "componentType": 5126,
      "count": 240,
      "max": [
        8.0
      ],
      "min": [
        0.03333333507180214
      ],
      "type": "SCALAR"
    },
    {
      "bufferView": 7,
      "byteOffset": 3824,
      "componentType": 5126,
      "count": 240,
      "type": "VEC4"
    }
  ],
  "animations": [
    {
      "channels": [
        {
          "sampler": 0,
          "target": {
            "node": 9,
            "path": "translation"
          }
        },
        {
          "sampler": 1,
          "target": {
            "node": 9,
            "path": "rotation"
          }
        },
        {
          "sampler": 2,
          "target": {
            "node": 5,
            "path": "rotation"
          }
        }
      ],
      "name": "Scene",
      "samplers": [
        {
          "input": 7,
          "interpolation": "LINEAR",
          "output": 8
        },
        {
          "input": 9,
          "interpolation": "LINEAR",
          "output": 10
        },
        {
          "input": 11,
          "interpolation": "LINEAR",
          "output": 12
        }
      ]
    }
  ],
  "asset": {
    "generator": "fab-model-conversion",
    "version": "2.0"
  },
  "bufferViews": [
    {
      "buffer": 0,
      "byteLength": 710784,
      "target": 34963
    },
    {
      "buffer": 0,
      "byteLength": 302160,
      "byteOffset": 710784,
      "byteStride": 8,
      "target": 34962
    },
    {
      "buffer": 0,
      "byteLength": 906480,
      "byteOffset": 1012944,
      "byteStride": 12,
      "target": 34962
    },
    {
      "buffer": 0,
      "byteLength": 604320,
      "byteOffset": 1919424,
      "byteStride": 16,
      "target": 34962
    },
    {
      "buffer": 0,
      "byteLength": 302160,
      "byteOffset": 2523744,
      "byteStride": 8,
      "target": 34962
    },
    {
      "buffer": 0,
      "byteLength": 128,
      "byteOffset": 2825904
    },
    {
      "buffer": 0,
      "byteLength": 2292,
      "byteOffset": 2826032
    },
    {
      "buffer": 0,
      "byteLength": 7664,
      "byteOffset": 2828324
    },
    {
      "buffer": 0,
      "byteLength": 2680,
      "byteOffset": 2835988
    }
  ],
  "buffers": [
    {
      "byteLength": 2838668,
      "uri": "scene.bin"
    }
  ],
  "images": [
    {
      "uri": "textures/Base_Phone_Material_baseColor.png"
    },
    {
      "uri": "textures/Base_Phone_Material_metallicRoughness.png"
    },
    {
      "uri": "textures/Base_Phone_Material_emissive.png"
    }
  ],
  "materials": [
    {
      "alphaMode": "BLEND",
      "doubleSided": true,
      "emissiveFactor": [
        1.0,
        1.0,
        1.0
      ],
      "emissiveTexture": {
        "index": 2
      },
      "name": "Base_Phone_Material",
      "pbrMetallicRoughness": {
        "baseColorTexture": {
          "index": 0
        },
        "metallicRoughnessTexture": {
          "index": 1
        }
      }
    }
  ],
  "meshes": [
    {
      "name": "Base Phone_Base Phone Material_0",
      "primitives": [
        {
          "attributes": {
            "JOINTS_0": 3,
            "NORMAL": 1,
            "POSITION": 0,
            "TEXCOORD_0": 2,
            "WEIGHTS_0": 4
          },
          "indices": 5,
          "material": 0,
          "mode": 4
        }
      ]
    }
  ],
  "nodes": [
    {
      "children": [
        1,
        8
      ],
      "matrix": [
        1.0,
        0.0,
        0.0,
        0.0,
        0.0,
        2.220446049250313e-16,
        -1.0,
        0.0,
        0.0,
        1.0,
        2.220446049250313e-16,
        0.0,
        0.0,
        0.0,
        0.0,
        1.0
      ],
      "name": "Sketchfab_model"
    },
    {
      "children": [
        2
      ],
      "matrix": [
        1.0,
        0.0,
        0.0,
        0.0,
        0.0,
        0.0,
        1.0,
        0.0,
        0.0,
        -1.0,
        0.0,
        0.0,
        0.0,
        0.0,
        0.0,
        1.0
      ],
      "name": "0ba91198a7334746a201b092acce5c5c.fbx"
    },
    {
      "children": [
        3
      ],
      "name": "Object_2"
    },
    {
      "children": [
        4,
        5
      ],
      "name": "RootNode",
      "rotation": [
        0.0,
        0.0,
        0.0,
        1.0
      ],
      "scale": [
        1.0,
        1.0,
        1.0
      ],
      "translation": [
        0.0,
        0.0,
        0.0
      ]
    },
    {
      "name": "Base Phone",
      "rotation": [
        -0.7709655165672302,
        0.0,
        0.0,
        0.6368768811225891
      ],
      "scale": [
        99.99999237060547,
        100.00000762939453,
        100.00000762939453
      ],
      "translation": [
        0.0,
        4.899104118347168,
        1.5414894819259644
      ]
    },
    {
      "children": [
        6
      ],
      "name": "Armature Phone",
      "rotation": [
        -0.7709654569625854,
        0.0,
        0.0,
        0.6368770003318787
      ],
      "scale": [
        1.3970662355422974,
        1.397066354751587,
        1.397066354751587
      ],
      "translation": [
        0.0,
        13.325370788574219,
        0.0
      ]
    },
    {
      "children": [
        7,
        9,
        11
      ],
      "name": "Object_6"
    },
    {
      "matrix": [
        99.99998919078735,
        0.0,
        0.0,
        0.0,
        0.0,
        -18.87755848716882,
        -98.20204085545448,
        0.0,
        0.0,
        98.20204085545448,
        -18.87755848716882,
        0.0,
        0.0,
        4.899104054600713,
        1.5414895575054999,
        1.0
      ],
      "name": "Object_7"
    },
    {
      "mesh": 0,
      "name": "Object_8",
      "skin": 0
    },
    {
      "children": [
        10
      ],
      "name": "flip_00",
      "rotation": [
        -0.5597036480903625,
        -0.0,
        0.0,
        0.8286928534507751
      ],
      "scale": [
        0.9999998211860657,
        0.9999998211860657,
        0.9999998211860657
      ],
      "translation": [
        0.0,
        -5.7584202295402065e-08,
        -1.9413339487073245e-06
      ]
    },
    {
      "name": "flip_end_02",
      "rotation": [
        0.0,
        0.0,
        0.0,
        1.0
      ],
      "scale": [
        1.0,
        1.0,
        1.0
      ],
      "translation": [
        0.0,
        1.0,
        2.220446049250313e-16
      ]
    },
    {
      "children": [
        12
      ],
      "name": "root_01",
      "rotation": [
        -0.7071068286895752,
        0.0,
        0.0,
        0.7071067094802856
      ],
      "scale": [
        1.0,
        1.0,
        1.0
      ],
      "translation": [
        0.0,
        0.0,
        0.0
      ]
    },
    {
      "name": "root_end_03",
      "rotation": [
        0.0,
        0.0,
        0.0,
        1.0
      ],
      "scale": [
        1.0,
        1.0,
        1.0
      ],
      "translation": [
        0.0,
        0.8649804592132568,
        0.0
      ]
    }
  ],
  "samplers": [
    {
      "magFilter": 9729,
      "minFilter": 9987,
      "wrapS": 10497,
      "wrapT": 10497
    }
  ],
  "scene": 0,
  "scenes": [
    {
      "name": "Sketchfab_Scene",
      "nodes": [
        0
      ]
    }
  ],
  "skins": [
    {
      "inverseBindMatrices": 6,
      "joints": [
        9,
        11
      ]
    }
  ],
  "textures": [
    {
      "sampler": 0,
      "source": 0
    },
    {
      "sampler": 0,
      "source": 1
    },
    {
      "sampler": 0,
      "source": 2
    }
  ]
}
